<?xml version="1.0" encoding="UTF-8"?>
<svg width="19px" height="19px" viewBox="0 0 19 19" version="1.1" xmlns="http://www.w3.org/2000/svg" xmlns:xlink="http://www.w3.org/1999/xlink">
    <!-- Generator: Sketch 42 (36781) - http://www.bohemiancoding.com/sketch -->
    <title>Page 1</title>
    <desc>Created with Sketch.</desc>
    <defs></defs>
    <g id="Press-Page" stroke="none" stroke-width="1" fill="none" fill-rule="evenodd">
        <g id="Press-&amp;-Media" transform="translate(-303.000000, -3253.000000)" fill="#FFFBCC">
            <g id="footer-&amp;-BG" transform="translate(109.000000, 103.000000)">
                <g id="Footer" transform="translate(0.000000, 2809.000000)">
                    <path d="M203.5,341 C203.743907,341 203.94186,341.197953 203.94186,341.44186 L203.94186,344.976744 C203.94186,345.220651 203.743907,345.418605 203.5,345.418605 C203.256093,345.418605 203.05814,345.220651 203.05814,344.976744 L203.05814,341.44186 C203.05814,341.197953 203.256093,341 203.5,341 Z M209.906977,343.651163 C210.019798,343.651163 210.131442,343.695938 210.217752,343.782248 C210.390372,343.954868 210.390372,344.237953 210.217752,344.410574 L207.718295,346.909736 C207.545674,347.082357 207.262589,347.082357 207.090264,346.909736 C206.917643,346.737411 206.917643,346.454326 207.090264,346.281705 L209.589426,343.782248 C209.675736,343.695938 209.794155,343.651163 209.906977,343.651163 Z M197.093023,343.651163 C197.205845,343.651163 197.324264,343.695938 197.410574,343.782248 L199.909736,346.281705 C200.082357,346.454326 200.082357,346.737411 199.909736,346.909736 C199.737411,347.082357 199.454326,347.082357 199.281705,346.909736 L196.782248,344.410574 C196.609628,344.237953 196.609628,343.954868 196.782248,343.782248 C196.868558,343.695938 196.980202,343.651163 197.093023,343.651163 Z M203.5,346.965116 C205.452729,346.965116 207.034884,348.547271 207.034884,350.5 C207.034884,352.452729 205.452729,354.034884 203.5,354.034884 C201.547271,354.034884 199.965116,352.452729 199.965116,350.5 C199.965116,348.547271 201.547271,346.965116 203.5,346.965116 Z M212.55814,350.05814 C212.802047,350.05814 213,350.256093 213,350.5 C213,350.743907 212.802047,350.94186 212.55814,350.94186 L209.023256,350.94186 C208.779349,350.94186 208.581395,350.743907 208.581395,350.5 C208.581395,350.256093 208.779349,350.05814 209.023256,350.05814 L212.55814,350.05814 Z M197.976744,350.05814 C198.220651,350.05814 198.418605,350.256093 198.418605,350.5 C198.418605,350.743907 198.220651,350.94186 197.976744,350.94186 L194.44186,350.94186 C194.197953,350.94186 194,350.743907 194,350.5 C194,350.256093 194.197953,350.05814 194.44186,350.05814 L197.976744,350.05814 Z M207.407814,353.965953 C207.520341,353.965953 207.631984,354.003953 207.718295,354.090264 L210.217752,356.589426 C210.390372,356.762047 210.390372,357.045132 210.217752,357.217752 C210.045132,357.390372 209.762047,357.390372 209.589426,357.217752 L207.090264,354.718295 C206.917643,354.545674 206.917643,354.262589 207.090264,354.090264 C207.176279,354.003953 207.294992,353.965953 207.407814,353.965953 Z M199.592186,353.965953 C199.705008,353.965953 199.823721,354.003953 199.909736,354.090264 C200.082357,354.262589 200.082357,354.545674 199.909736,354.718295 L197.410574,357.217752 C197.237953,357.390372 196.954868,357.390372 196.782248,357.217752 C196.609628,357.045132 196.609628,356.762047 196.782248,356.589426 L199.281705,354.090264 C199.368016,354.003953 199.479659,353.965953 199.592186,353.965953 Z M203.5,355.581395 C203.743907,355.581395 203.94186,355.779349 203.94186,356.023256 L203.94186,359.55814 C203.94186,359.802047 203.743907,360 203.5,360 C203.256093,360 203.05814,359.802047 203.05814,359.55814 L203.05814,356.023256 C203.05814,355.779349 203.256093,355.581395 203.5,355.581395 Z" id="Page-1"></path>
                </g>
            </g>
        </g>
    </g>
</svg>